<mxfile host="app.diagrams.net" modified="2023-09-22T15:10:45.952Z" agent="Mozilla/5.0 (Windows NT 10.0; Win64; x64) AppleWebKit/537.36 (KHTML, like Gecko) Chrome/117.0.0.0 Safari/537.36" etag="Urlf_LYFWV60CyH0UV8o" version="21.8.0" type="device">
  <diagram id="R2lEEEUBdFMjLlhIrx00" name="Page-1">
    <mxGraphModel dx="1615" dy="888" grid="1" gridSize="10" guides="1" tooltips="1" connect="1" arrows="1" fold="1" page="1" pageScale="1" pageWidth="850" pageHeight="1100" math="0" shadow="0" extFonts="Permanent Marker^https://fonts.googleapis.com/css?family=Permanent+Marker">
      <root>
        <mxCell id="0" />
        <mxCell id="1" parent="0" />
        <mxCell id="c9tKdTn89NOS2SGfD_PU-135" style="edgeStyle=orthogonalEdgeStyle;rounded=0;orthogonalLoop=1;jettySize=auto;html=1;exitX=0.5;exitY=0.5;exitDx=0;exitDy=0;exitPerimeter=0;entryX=0;entryY=0.5;entryDx=0;entryDy=0;" edge="1" parent="1" source="c9tKdTn89NOS2SGfD_PU-106" target="c9tKdTn89NOS2SGfD_PU-111">
          <mxGeometry relative="1" as="geometry" />
        </mxCell>
        <mxCell id="c9tKdTn89NOS2SGfD_PU-136" style="edgeStyle=orthogonalEdgeStyle;rounded=0;orthogonalLoop=1;jettySize=auto;html=1;entryX=0;entryY=0.5;entryDx=0;entryDy=0;" edge="1" parent="1" source="c9tKdTn89NOS2SGfD_PU-106" target="c9tKdTn89NOS2SGfD_PU-112">
          <mxGeometry relative="1" as="geometry" />
        </mxCell>
        <mxCell id="c9tKdTn89NOS2SGfD_PU-137" style="edgeStyle=orthogonalEdgeStyle;rounded=0;orthogonalLoop=1;jettySize=auto;html=1;exitX=0.5;exitY=0.5;exitDx=0;exitDy=0;exitPerimeter=0;entryX=0;entryY=0.5;entryDx=0;entryDy=0;" edge="1" parent="1" source="c9tKdTn89NOS2SGfD_PU-106" target="c9tKdTn89NOS2SGfD_PU-120">
          <mxGeometry relative="1" as="geometry" />
        </mxCell>
        <mxCell id="c9tKdTn89NOS2SGfD_PU-144" style="edgeStyle=orthogonalEdgeStyle;rounded=0;orthogonalLoop=1;jettySize=auto;html=1;entryX=0;entryY=0.5;entryDx=0;entryDy=0;" edge="1" parent="1" source="c9tKdTn89NOS2SGfD_PU-106" target="c9tKdTn89NOS2SGfD_PU-123">
          <mxGeometry relative="1" as="geometry" />
        </mxCell>
        <mxCell id="c9tKdTn89NOS2SGfD_PU-106" value="Actor / User" style="shape=umlActor;verticalLabelPosition=bottom;verticalAlign=top;html=1;outlineConnect=0;" vertex="1" parent="1">
          <mxGeometry x="90" y="280" width="30" height="60" as="geometry" />
        </mxCell>
        <mxCell id="c9tKdTn89NOS2SGfD_PU-134" style="edgeStyle=orthogonalEdgeStyle;rounded=0;orthogonalLoop=1;jettySize=auto;html=1;entryX=0.5;entryY=1;entryDx=0;entryDy=0;" edge="1" parent="1" source="c9tKdTn89NOS2SGfD_PU-109" target="c9tKdTn89NOS2SGfD_PU-114">
          <mxGeometry relative="1" as="geometry" />
        </mxCell>
        <mxCell id="c9tKdTn89NOS2SGfD_PU-109" value="Actor / Admin" style="shape=umlActor;verticalLabelPosition=bottom;verticalAlign=top;html=1;outlineConnect=0;" vertex="1" parent="1">
          <mxGeometry x="630" y="260" width="30" height="60" as="geometry" />
        </mxCell>
        <mxCell id="c9tKdTn89NOS2SGfD_PU-113" value="" style="edgeStyle=orthogonalEdgeStyle;rounded=0;orthogonalLoop=1;jettySize=auto;html=1;" edge="1" parent="1" source="c9tKdTn89NOS2SGfD_PU-111" target="c9tKdTn89NOS2SGfD_PU-112">
          <mxGeometry relative="1" as="geometry" />
        </mxCell>
        <mxCell id="c9tKdTn89NOS2SGfD_PU-111" value="&lt;span style=&quot;border-bottom: 1px dotted&quot;&gt;Mulai navigasi Aplikasi KAI&lt;/span&gt;" style="ellipse;whiteSpace=wrap;html=1;align=center;" vertex="1" parent="1">
          <mxGeometry x="260" y="90" width="100" height="40" as="geometry" />
        </mxCell>
        <mxCell id="c9tKdTn89NOS2SGfD_PU-115" value="" style="edgeStyle=orthogonalEdgeStyle;rounded=0;orthogonalLoop=1;jettySize=auto;html=1;" edge="1" parent="1" source="c9tKdTn89NOS2SGfD_PU-112" target="c9tKdTn89NOS2SGfD_PU-114">
          <mxGeometry relative="1" as="geometry" />
        </mxCell>
        <mxCell id="c9tKdTn89NOS2SGfD_PU-112" value="&lt;span style=&quot;border-bottom: 1px dotted&quot;&gt;Informasi statisiun, asal, tujuan dan jadwal&lt;/span&gt;" style="ellipse;whiteSpace=wrap;html=1;align=center;" vertex="1" parent="1">
          <mxGeometry x="260" y="170" width="100" height="40" as="geometry" />
        </mxCell>
        <mxCell id="c9tKdTn89NOS2SGfD_PU-127" style="edgeStyle=orthogonalEdgeStyle;rounded=0;orthogonalLoop=1;jettySize=auto;html=1;entryX=1;entryY=0.5;entryDx=0;entryDy=0;" edge="1" parent="1" source="c9tKdTn89NOS2SGfD_PU-114" target="c9tKdTn89NOS2SGfD_PU-116">
          <mxGeometry relative="1" as="geometry" />
        </mxCell>
        <mxCell id="c9tKdTn89NOS2SGfD_PU-114" value="&lt;span style=&quot;border-bottom: 1px dotted&quot;&gt;Query database Login&lt;/span&gt;" style="ellipse;whiteSpace=wrap;html=1;align=center;" vertex="1" parent="1">
          <mxGeometry x="440" y="170" width="100" height="40" as="geometry" />
        </mxCell>
        <mxCell id="c9tKdTn89NOS2SGfD_PU-119" style="edgeStyle=orthogonalEdgeStyle;rounded=0;orthogonalLoop=1;jettySize=auto;html=1;entryX=0;entryY=0.5;entryDx=0;entryDy=0;dashed=1;" edge="1" parent="1" source="c9tKdTn89NOS2SGfD_PU-116" target="c9tKdTn89NOS2SGfD_PU-118">
          <mxGeometry relative="1" as="geometry" />
        </mxCell>
        <mxCell id="c9tKdTn89NOS2SGfD_PU-116" value="&lt;span style=&quot;border-bottom: 1px dotted&quot;&gt;Tampilan kereta yang ada&lt;/span&gt;" style="ellipse;whiteSpace=wrap;html=1;align=center;" vertex="1" parent="1">
          <mxGeometry x="280" y="250" width="100" height="40" as="geometry" />
        </mxCell>
        <mxCell id="c9tKdTn89NOS2SGfD_PU-118" value="&lt;span style=&quot;border-bottom: 1px dotted&quot;&gt;Konfirmasi pemesanan&lt;/span&gt;" style="ellipse;whiteSpace=wrap;html=1;align=center;" vertex="1" parent="1">
          <mxGeometry x="370" y="320" width="100" height="40" as="geometry" />
        </mxCell>
        <mxCell id="c9tKdTn89NOS2SGfD_PU-122" value="" style="edgeStyle=orthogonalEdgeStyle;rounded=0;orthogonalLoop=1;jettySize=auto;html=1;" edge="1" parent="1" source="c9tKdTn89NOS2SGfD_PU-120" target="c9tKdTn89NOS2SGfD_PU-121">
          <mxGeometry relative="1" as="geometry" />
        </mxCell>
        <mxCell id="c9tKdTn89NOS2SGfD_PU-128" style="edgeStyle=orthogonalEdgeStyle;rounded=0;orthogonalLoop=1;jettySize=auto;html=1;entryX=0.5;entryY=1;entryDx=0;entryDy=0;dashed=1;" edge="1" parent="1" source="c9tKdTn89NOS2SGfD_PU-120" target="c9tKdTn89NOS2SGfD_PU-118">
          <mxGeometry relative="1" as="geometry" />
        </mxCell>
        <mxCell id="c9tKdTn89NOS2SGfD_PU-120" value="&lt;span style=&quot;border-bottom: 1px dotted&quot;&gt;Isi data diri&lt;/span&gt;" style="ellipse;whiteSpace=wrap;html=1;align=center;" vertex="1" parent="1">
          <mxGeometry x="270" y="400" width="100" height="40" as="geometry" />
        </mxCell>
        <mxCell id="c9tKdTn89NOS2SGfD_PU-125" style="edgeStyle=orthogonalEdgeStyle;rounded=0;orthogonalLoop=1;jettySize=auto;html=1;entryX=0.5;entryY=0;entryDx=0;entryDy=0;dashed=1;" edge="1" parent="1" source="c9tKdTn89NOS2SGfD_PU-121" target="c9tKdTn89NOS2SGfD_PU-124">
          <mxGeometry relative="1" as="geometry" />
        </mxCell>
        <mxCell id="c9tKdTn89NOS2SGfD_PU-121" value="&lt;span style=&quot;border-bottom: 1px dotted&quot;&gt;Pilih kursi dan gerbong&lt;/span&gt;" style="ellipse;whiteSpace=wrap;html=1;align=center;" vertex="1" parent="1">
          <mxGeometry x="270" y="480" width="100" height="40" as="geometry" />
        </mxCell>
        <mxCell id="c9tKdTn89NOS2SGfD_PU-126" style="edgeStyle=orthogonalEdgeStyle;rounded=0;orthogonalLoop=1;jettySize=auto;html=1;entryX=0.5;entryY=1;entryDx=0;entryDy=0;dashed=1;" edge="1" parent="1" source="c9tKdTn89NOS2SGfD_PU-123" target="c9tKdTn89NOS2SGfD_PU-124">
          <mxGeometry relative="1" as="geometry" />
        </mxCell>
        <mxCell id="c9tKdTn89NOS2SGfD_PU-130" value="" style="edgeStyle=orthogonalEdgeStyle;rounded=0;orthogonalLoop=1;jettySize=auto;html=1;" edge="1" parent="1" source="c9tKdTn89NOS2SGfD_PU-123" target="c9tKdTn89NOS2SGfD_PU-129">
          <mxGeometry relative="1" as="geometry" />
        </mxCell>
        <mxCell id="c9tKdTn89NOS2SGfD_PU-123" value="&lt;span style=&quot;border-bottom: 1px dotted&quot;&gt;Konfirmasi pembayaran&lt;/span&gt;" style="ellipse;whiteSpace=wrap;html=1;align=center;" vertex="1" parent="1">
          <mxGeometry x="270" y="620" width="100" height="40" as="geometry" />
        </mxCell>
        <mxCell id="c9tKdTn89NOS2SGfD_PU-124" value="&lt;span style=&quot;border-bottom: 1px dotted&quot;&gt;Pembayaran&lt;/span&gt;" style="ellipse;whiteSpace=wrap;html=1;align=center;" vertex="1" parent="1">
          <mxGeometry x="410" y="550" width="100" height="40" as="geometry" />
        </mxCell>
        <mxCell id="c9tKdTn89NOS2SGfD_PU-129" value="&lt;span style=&quot;border-bottom: 1px dotted&quot;&gt;Cetak tiket&lt;/span&gt;" style="ellipse;whiteSpace=wrap;html=1;align=center;" vertex="1" parent="1">
          <mxGeometry x="270" y="700" width="100" height="40" as="geometry" />
        </mxCell>
        <mxCell id="c9tKdTn89NOS2SGfD_PU-132" style="edgeStyle=orthogonalEdgeStyle;rounded=0;orthogonalLoop=1;jettySize=auto;html=1;entryX=1;entryY=0.5;entryDx=0;entryDy=0;dashed=1;" edge="1" parent="1" source="c9tKdTn89NOS2SGfD_PU-131" target="c9tKdTn89NOS2SGfD_PU-124">
          <mxGeometry relative="1" as="geometry" />
        </mxCell>
        <mxCell id="c9tKdTn89NOS2SGfD_PU-131" value="&lt;span style=&quot;border-bottom: 1px dotted&quot;&gt;Admin Pembayaran&lt;/span&gt;" style="ellipse;whiteSpace=wrap;html=1;align=center;" vertex="1" parent="1">
          <mxGeometry x="540" y="670" width="100" height="40" as="geometry" />
        </mxCell>
        <mxCell id="c9tKdTn89NOS2SGfD_PU-142" style="edgeStyle=orthogonalEdgeStyle;rounded=0;orthogonalLoop=1;jettySize=auto;html=1;entryX=0.007;entryY=0.662;entryDx=0;entryDy=0;entryPerimeter=0;" edge="1" parent="1" source="c9tKdTn89NOS2SGfD_PU-106" target="c9tKdTn89NOS2SGfD_PU-121">
          <mxGeometry relative="1" as="geometry" />
        </mxCell>
      </root>
    </mxGraphModel>
  </diagram>
</mxfile>
